# xmcd
#
# Track frame offsets:
#	150
#	20401
#	37838
#	54586
#	71314
#	90472
#	107590
#	129371
#	147204
#	163623
#	186532
#	204138
#
# Disc length: 3014 seconds
#
# Revision: 1
# Processed by: cddbd v1.5.2PL0 Copyright (c) Steve Scherf et al.
# Submitted via: audiograbber 1.83.01
#
DISCID=960bc40c
DTITLE=Vince Gill - Okie
DYEAR=2019
DGENRE=Country
TTITLE0=I Don't Wanna Ride The Rails No More
TTITLE1=The Price Of Regret
TTITLE2=Forever Changed
TTITLE3=An Honest Man
TTITLE4=What Choice Will You Make
TTITLE5=Black And White
TTITLE6=The Red Words
TTITLE7=When My Amy Prays
TTITLE8=A Letter To My Mama
TTITLE9=Nothin' Like A Guy Clark Song
TTITLE10=That Old Man Of Mine
TTITLE11=A World Without Haggard
EXTD=
EXTT0=
EXTT1=
EXTT2=
EXTT3=
EXTT4=
EXTT5=
EXTT6=
EXTT7=
EXTT8=
EXTT9=
EXTT10=
EXTT11=
PLAYORDER=
